<?xml version="1.0" encoding="UTF-8"?>
<svg version="1.1" xmlns="http://www.w3.org/2000/svg" width="500" height="500">
<path d="M0 0 C0.75169968 0.36134033 1.50339935 0.72268066 2.27787781 1.0949707 C4.73174687 2.27765065 7.17613372 3.47871391 9.62109375 4.6796875 C11.33813568 5.5104654 13.05591856 6.33971352 14.77441406 7.16748047 C18.24211765 8.83857916 21.70712429 10.51507929 25.17041016 12.1953125 C31.85002478 15.42839619 38.57627488 18.5582689 45.30859375 21.6796875 C47.72814594 22.80539122 50.14749264 23.93152016 52.56640625 25.05859375 C53.16878616 25.3391713 53.77116608 25.61974884 54.39179993 25.90882874 C61.99985478 29.45531652 69.59071727 33.03835647 77.18359375 36.6171875 C88.58533694 41.99070573 100.00404667 47.32499861 111.44189453 52.62133789 C120.66453691 56.89647846 129.86372459 61.22021293 139.05859375 65.5546875 C149.46207393 70.45850366 159.87431123 75.34165677 170.30859375 80.1796875 C171.97136353 80.9519165 171.97136353 80.9519165 173.66772461 81.73974609 C179.18656121 84.30153497 184.70896632 86.85516002 190.23886108 89.39297485 C193.02562538 90.67327818 195.80993503 91.95886276 198.59387207 93.24530029 C199.93332939 93.86268309 201.27388983 94.47767878 202.61560059 95.09014893 C204.47574133 95.93949643 206.33194225 96.7969461 208.1875 97.65625 C209.7818689 98.38835693 209.7818689 98.38835693 211.40844727 99.13525391 C214.58858147 100.83855195 216.53264223 102.03917921 217.73413086 105.5012207 C219.00643497 112.53900423 219.79027212 119.59604884 220.4362793 126.7175293 C220.61675011 128.69460255 220.80920513 130.67057027 221.00195312 132.64648438 C223.42713435 158.16385636 223.26039097 183.76238657 223.24609375 209.3671875 C223.24597416 210.31511799 223.24585457 211.26304848 223.24573135 212.23970413 C223.24039497 245.71881387 222.69202024 279.11022193 221.05859375 312.5546875 C220.99824951 313.79742432 220.93790527 315.04016113 220.87573242 316.32055664 C220.21436053 329.84259783 219.51184775 343.36257382 218.7421875 356.87890625 C218.68806702 357.86139343 218.63394653 358.84388062 218.57818604 359.85614014 C218.47366357 361.64229198 218.35519649 363.42771082 218.2194519 365.21176147 C218.07787117 367.27390865 218.03877769 369.34254907 218.01586914 371.40942383 C216.75830054 375.54134331 214.98111008 376.42843511 211.29205322 378.43942261 C210.5550116 378.80746002 209.81796997 379.17549744 209.05859375 379.5546875 C208.08959137 380.0674675 208.08959137 380.0674675 207.10101318 380.59060669 C205.14060255 381.61249215 203.16282104 382.58958786 201.17578125 383.55859375 C199.67492701 384.30037391 198.17411479 385.04223911 196.67333984 385.78417969 C195.89947937 386.16489624 195.1256189 386.54561279 194.32830811 386.93786621 C180.63764879 393.68008411 167.11389852 400.63614501 153.77685547 408.05664062 C149.65695165 410.32713908 145.50605191 412.5389292 141.35766602 414.75683594 C130.59648365 420.51218106 119.94211487 426.41803346 109.3671875 432.5078125 C99.32057549 438.28954843 89.18522951 443.9147588 79.05859375 449.5546875 C77.89090989 450.20630741 76.72326728 450.85800122 75.55566406 451.50976562 C59.2064475 460.63114307 42.73420651 469.44185166 26.07958984 477.99560547 C22.42001521 479.88424646 18.77620487 481.80145396 15.13623047 483.72753906 C12.13518653 485.31542544 9.12791328 486.89130359 6.12060547 488.46728516 C4.08452273 489.54101385 2.05792192 490.63129467 0.03125 491.72265625 C-1.20925281 492.37572728 -2.4501158 493.02811478 -3.69140625 493.6796875 C-4.738125 494.23914063 -5.78484375 494.79859375 -6.86328125 495.375 C-11.1342636 497.01184857 -14.71308183 497.34904934 -19.10699463 495.78269005 C-21.62875465 494.63793094 -24.0889489 493.40798725 -26.55078125 492.1394043 C-27.49021576 491.66939499 -28.42965027 491.19938568 -29.39755249 490.71513367 C-32.50227245 489.15778869 -35.59662971 487.58090567 -38.69140625 486.00390625 C-40.86767906 484.90795857 -43.04461126 483.81331938 -45.22216797 482.71992493 C-50.96685952 479.83137843 -56.70314318 476.92651871 -62.43762207 474.01776123 C-69.32568327 470.52717508 -76.22258967 467.05411477 -83.11901855 463.58009815 C-88.50493586 460.86684374 -93.88930881 458.15070073 -99.26855469 455.42424011 C-111.06913704 449.45152929 -122.93206777 443.6354511 -134.8828125 437.96894836 C-141.60198022 434.7775339 -148.24736535 431.44194808 -154.88781738 428.09063721 C-164.94150732 423.01897106 -175.00913236 417.98928033 -185.19140625 413.1796875 C-201.2981143 405.56864204 -217.20274317 397.5195513 -233.09573364 389.47314453 C-234.82270059 388.61375867 -236.57179512 387.79924769 -238.32202148 386.98828125 C-240.94140625 385.5546875 -240.94140625 385.5546875 -242.94140625 382.5546875 C-243.28234863 380.61199951 -243.28234863 380.61199951 -243.41210938 378.37011719 C-243.46563568 377.51917984 -243.51916199 376.66824249 -243.5743103 375.79151917 C-243.64774155 374.39811562 -243.64774155 374.39811562 -243.72265625 372.9765625 C-243.78103668 371.99892441 -243.83941711 371.02128632 -243.89956665 370.01402283 C-244.08975284 366.7780501 -244.26606029 363.54149595 -244.44140625 360.3046875 C-244.56982154 358.04140388 -244.69856936 355.77813911 -244.82763672 353.51489258 C-246.05159959 331.72714283 -247.04153771 309.93012077 -247.84570312 288.12304688 C-247.93442448 285.74205533 -248.02703286 283.36125438 -248.12109375 280.98046875 C-249.93836232 234.31599726 -250.04524912 187.25468824 -247.07098389 140.64398193 C-246.94776934 138.65728525 -246.83896957 136.66971005 -246.73095703 134.68212891 C-246.55672008 131.4913316 -246.3522503 128.30486678 -246.12890625 125.1171875 C-246.06050537 123.85600098 -246.06050537 123.85600098 -245.99072266 122.56933594 C-245.6923598 119.08968847 -245.12987108 116.82174617 -243.10546875 113.953125 C-238.37459608 110.36700671 -233.30217921 107.51565319 -228.12890625 104.6171875 C-226.3661786 103.61826513 -224.60499112 102.61666068 -222.84378052 101.61506653 C-221.64160223 100.93177821 -220.43885905 100.24948285 -219.23556519 99.56816101 C-214.41282305 96.83521386 -209.63315829 94.0329855 -204.86010742 91.21411133 C-192.41284501 83.87069503 -179.74738306 76.98791448 -166.99462891 70.19238281 C-163.33976347 68.23197682 -159.70861348 66.23079702 -156.07861328 64.22485352 C-140.66936901 55.72536803 -124.9949298 47.73768786 -109.31085205 39.76086426 C-106.93898191 38.55345338 -104.56871387 37.34294542 -102.19873047 36.13183594 C-80.09099303 24.84507802 -57.79302095 14.25061199 -34.94140625 4.5546875 C-33.85456543 4.08869141 -32.76772461 3.62269531 -31.64794922 3.14257812 C-28.85663099 1.95048551 -26.05837581 0.77794258 -23.25390625 -0.3828125 C-22.48868652 -0.70725342 -21.7234668 -1.03169434 -20.93505859 -1.3659668 C-20.23203613 -1.64867432 -19.52901367 -1.93138184 -18.8046875 -2.22265625 C-18.21985596 -2.46234131 -17.63502441 -2.70202637 -17.0324707 -2.94897461 C-10.42453928 -4.51744216 -5.8031804 -2.89634954 0 0 Z " fill="#000000" transform="translate(262.94140625,3.4453125)"/>
<path d="M0 0 C2.00941579 3.01412368 2.30397628 3.99391678 2.59765625 7.4375 C2.71657227 8.78328125 2.71657227 8.78328125 2.83789062 10.15625 C2.94907227 11.56390625 2.94907227 11.56390625 3.0625 13 C3.14048828 13.8765625 3.21847656 14.753125 3.29882812 15.65625 C4.73116373 32.51282765 5.16878061 49.34730266 5.203125 66.2578125 C5.21002243 68.38664771 5.21697163 70.51548275 5.22396851 72.64431763 C5.24311956 79.4712133 5.24763663 86.2980809 5.25 93.125 C5.25088371 94.28748764 5.25176743 95.44997528 5.25267792 96.64768982 C5.27374376 127.87318393 5.00444958 159.05245747 3.625 190.25 C3.57739281 191.33796749 3.57739281 191.33796749 3.52882385 192.44791412 C3.20502621 199.79855692 2.84047898 207.14416018 2.39257812 214.48852539 C2.12360707 219.02213663 1.96473998 223.53048085 1.94586754 228.07007694 C1.83549319 249.81407839 1.83549319 249.81407839 -2.61669922 254.48193359 C-6.00534894 257.05136058 -9.74116951 258.2803798 -13.75 259.5625 C-15.13555203 260.1102821 -16.51596008 260.67124133 -17.89111328 261.24462891 C-20.63983294 262.38037159 -23.40036967 263.46111331 -26.18652344 264.50146484 C-31.35560408 266.47419264 -36.08878674 269.11768978 -40.875 271.875 C-42.62159811 272.84623372 -44.37037391 273.81355959 -46.12109375 274.77734375 C-47.04132324 275.28507324 -47.96155273 275.79280273 -48.90966797 276.31591797 C-54.52519958 279.37611208 -60.18850651 282.34644574 -65.84399414 285.3319397 C-76.85920103 291.14896448 -87.79429716 297.06789449 -98.60986328 303.25097656 C-106.88334886 307.96982922 -115.26151854 312.4820911 -123.65722656 316.97900391 C-129.84050565 320.29286372 -136.00192029 323.6387142 -142.125 327.0625 C-157.97767655 335.915554 -173.96219464 344.51801276 -190.08154297 352.87548828 C-196.35836065 356.13107172 -202.58661455 359.46020887 -208.76953125 362.890625 C-211 364 -211 364 -213 364 C-213.02351916 337.5191867 -213.04107146 311.03837499 -213.05181217 284.55755329 C-213.05693519 272.2578477 -213.06390025 259.95814865 -213.07543945 247.65844727 C-213.08550993 236.91900779 -213.09188234 226.17957305 -213.09408849 215.44012898 C-213.09537496 209.77100135 -213.09832598 204.10188727 -213.10573006 198.43276405 C-213.11958549 187.11248053 -213.11406334 175.7928914 -213.04393405 164.47277921 C-213.01519693 159.78084518 -212.99809366 155.08960024 -213.0108757 150.39757919 C-213.022304 146.01664677 -213.00072975 141.63714495 -212.95308578 137.25646818 C-212.94141013 135.66515853 -212.94158089 134.07370908 -212.95474255 132.48241103 C-213.04274024 120.59040884 -213.04274024 120.59040884 -210.45209026 116.63909626 C-207.42262879 113.79233488 -204.29034988 111.8716709 -200.24609375 110.80078125 C-194.10041019 108.8519788 -188.97368645 105.60061646 -183.5 102.25 C-181.45154431 101.0471859 -179.3993918 99.85064744 -177.34375 98.66015625 C-176.30476563 98.0583252 -175.26578125 97.45649414 -174.1953125 96.83642578 C-165.74463002 91.97960781 -157.22228989 87.24935349 -148.70605469 82.50878906 C-145.17232265 80.53851984 -141.64819244 78.55152847 -138.125 76.5625 C-124.14751658 68.68563476 -110.0986932 60.93495292 -96.06640625 53.15625 C-93.79417393 51.89600804 -91.52203789 50.63559245 -89.25 49.375 C-88.12754883 48.75230225 -87.00509766 48.12960449 -85.84863281 47.48803711 C-78.68898689 43.51028265 -71.55729699 39.48603621 -64.4375 35.4375 C-55.27984533 30.23392491 -46.02756058 25.22297343 -36.73950195 20.2565918 C-28.15775451 15.65570156 -19.66536619 10.90956626 -11.20703125 6.0859375 C-10.31628906 5.57804687 -9.42554688 5.07015625 -8.5078125 4.546875 C-7.73066895 4.10182617 -6.95352539 3.65677734 -6.15283203 3.19824219 C-4.12784033 2.07115449 -2.08137044 1.01850523 0 0 Z " fill="#E48E41" transform="translate(468,120)"/>
<path d="M0 0 C3.99613823 1.25066902 7.64171356 2.71467922 11.3515625 4.65234375 C12.35904541 5.17675049 13.36652832 5.70115723 14.40454102 6.24145508 C15.46729248 6.8011499 16.53004395 7.36084473 17.625 7.9375 C18.72062256 8.51072998 19.81624512 9.08395996 20.94506836 9.67456055 C31.04085721 14.97724406 41.03482316 20.4568928 51 26 C51.2536685 45.403689 50.88086607 64.74933567 50.16796875 84.140625 C50.08860017 86.3631493 50.00951037 88.58568357 49.93069458 90.80822754 C49.60397447 99.96735058 49.27575663 109.12624647 48.90454102 118.28369141 C48.67491553 123.96854782 48.47021586 129.65382526 48.28215981 135.34020233 C48.20650001 137.4855593 48.12154113 139.63061004 48.02693748 141.77521515 C47.89688085 144.74470458 47.79862856 147.71366051 47.70776367 150.68457031 C47.66173508 151.55917404 47.61570648 152.43377777 47.56828308 153.33488464 C47.46834437 157.73637955 47.53153676 159.40620863 50.34970093 162.97831726 C53.02967989 165.0226402 55.60891416 166.61816376 58.62109375 168.12890625 C59.70962646 168.68247803 60.79815918 169.2360498 61.91967773 169.80639648 C63.08055908 170.38591064 64.24144043 170.9654248 65.4375 171.5625 C67.89817662 172.81051742 70.35519562 174.06567124 72.8125 175.3203125 C73.73493752 175.78959419 73.73493752 175.78959419 74.67601013 176.26835632 C80.15185742 179.05964791 85.55431055 181.97237641 90.9375 184.9375 C96.95107594 188.24465941 102.97377564 191.532133 109.02734375 194.765625 C109.93299072 195.24943886 109.93299072 195.24943886 110.85693359 195.74302673 C113.30209002 197.04861375 115.74760653 198.35351385 118.19439697 199.65603638 C123.86596509 202.67584851 129.53057419 205.69492546 135.08984375 208.91796875 C135.81961426 209.34053955 136.54938477 209.76311035 137.30126953 210.19848633 C138.58062154 210.94687153 139.85446378 211.70481782 141.12060547 212.4753418 C145.04829171 214.77933327 148.43364744 215.8799764 153 216 C154.82082472 215.03858489 154.82082472 215.03858489 156 213 C156.37922689 210.41509392 156.57083242 208.05046083 156.64038086 205.45361328 C156.67245856 204.66699877 156.70453627 203.88038425 156.73758602 203.06993294 C156.8415168 200.38027332 156.92197756 197.69053023 157 195 C157.06458866 193.01836771 157.12930029 191.03673942 157.19412231 189.05511475 C157.40598877 182.28476947 157.58036569 175.51360466 157.75390625 168.7421875 C157.8195099 166.25684009 157.88534548 163.77149878 157.95140076 161.28616333 C158.12302115 154.80586532 158.29153113 148.32549018 158.45935059 141.84509277 C158.63179618 135.20787597 158.80724255 128.57073891 158.98242188 121.93359375 C159.32451952 108.95580437 159.66342712 95.97793378 160 83 C164.3849658 83.78092902 167.98352252 85.29636253 171.92578125 87.31640625 C172.59103317 87.65115463 173.2562851 87.98590302 173.94169617 88.33079529 C176.06819648 89.40239978 178.19039515 90.48222167 180.3125 91.5625 C181.69568057 92.26162783 183.07914202 92.96020025 184.46289062 93.65820312 C186.45509601 94.66352263 188.44695662 95.66944319 190.43659973 96.67982483 C195.37845739 99.18913892 200.33432685 101.67001703 205.29216003 104.14756775 C206.03419473 104.5184777 206.77622943 104.88938766 207.54075003 105.2715373 C209.36045661 106.18111172 211.18022237 107.09056773 213 108 C213.02375529 129.80767993 213.04118189 151.61535761 213.05181217 173.42304802 C213.05688737 183.55726439 213.0637812 193.69147249 213.07543945 203.82568359 C213.13041528 252.56070738 212.97012294 301.2734455 212 350 C188.91023915 339.79590993 166.42686365 328.2659729 143.875 316.9375 C137.99869727 313.98568207 132.1215891 311.03548541 126.2421875 308.08984375 C125.53450981 307.73524456 124.82683212 307.38064537 124.09770966 307.01530075 C113.34797553 301.63293464 102.54211728 296.38155073 91.68017578 291.22875977 C86.0770025 288.56937503 80.53170965 285.80505754 75 283 C67.45724349 279.20162196 59.88222216 275.48997359 52.25 271.875 C42.52375107 267.24316141 32.82860807 262.54743 23.16711426 257.78204346 C21.52053614 256.97221041 19.87185984 256.16662892 18.22106934 255.36541748 C15.89544241 254.23553991 13.57793268 253.0904308 11.26171875 251.94140625 C10.55760361 251.60324387 9.85348846 251.26508148 9.1280365 250.91667175 C5.42458587 249.05712377 3.48199834 247.87721531 2 244 C1.65905762 241.75637817 1.65905762 241.75637817 1.52929688 239.26220703 C1.4757756 238.31328583 1.42225433 237.36436462 1.36711121 236.38668823 C1.31815201 235.35415924 1.26919281 234.32163025 1.21875 233.2578125 C1.13111137 231.62575363 1.13111137 231.62575363 1.04170227 229.96072388 C0.85104536 226.34925583 0.67453409 222.73728117 0.5 219.125 C0.37205656 216.55956694 0.24404439 213.9941373 0.1159668 211.42871094 C-0.20851336 204.85217014 -0.51766521 198.27502562 -0.82427979 191.69763184 C-0.98508146 188.31392681 -1.15481145 184.93085924 -1.32958984 181.54785156 C-2.89692937 151.02849751 -3.20746138 120.53126115 -3.24542618 89.97782898 C-3.24991678 86.99281788 -3.25761575 84.00782969 -3.26596069 81.02282715 C-3.3144751 60.99110675 -3.14710123 41.0093972 -2.046875 21.00390625 C-1.98222424 19.82155049 -1.98222424 19.82155049 -1.9162674 18.61530876 C-1.15818573 5.11365559 -1.15818573 5.11365559 0 0 Z " fill="#E48E41" transform="translate(30,133)"/>
<path d="M0 0 C1.50868652 0.70334473 1.50868652 0.70334473 3.04785156 1.42089844 C4.800896 2.20364136 4.800896 2.20364136 6.58935547 3.00219727 C7.90268511 3.62398194 9.21428572 4.24942778 10.52441406 4.87792969 C11.59638031 5.3868425 11.59638031 5.3868425 12.69000244 5.90603638 C14.22255753 6.63396595 15.75439825 7.36340114 17.2855835 8.09420776 C21.34353523 10.03063913 25.40706274 11.95531581 29.46972656 13.88183594 C30.2855722 14.26909348 31.10141785 14.65635101 31.94198608 15.05534363 C39.25315871 18.52401032 46.58221363 21.95252513 53.92285156 25.35839844 C55.04103271 25.87805176 56.15921387 26.39770508 57.3112793 26.93310547 C62.73590813 29.44761154 68.17177122 31.93298711 73.62988281 34.37402344 C74.66193848 34.83687744 75.69399414 35.29973145 76.75732422 35.77661133 C78.69053394 36.64115134 80.62627881 37.50005282 82.56494141 38.35229492 C83.40879395 38.72942627 84.25264648 39.10655762 85.12207031 39.49511719 C85.86030029 39.82084717 86.59853027 40.14657715 87.35913086 40.48217773 C89.04785156 41.42089844 89.04785156 41.42089844 90.04785156 43.42089844 C89.28456543 43.81245117 88.5212793 44.20400391 87.73486328 44.60742188 C68.79284613 54.32783808 68.79284613 54.32783808 50.04785156 64.42089844 C41.00328415 69.40971993 31.8497354 74.16872543 22.66357422 78.88916016 C14.7349343 82.96586266 6.85501454 87.11470541 -0.95214844 91.42089844 C-9.99676432 96.40963276 -19.15026262 101.16872441 -28.33642578 105.88916016 C-36.2650657 109.96586266 -44.14498546 114.11470541 -51.95214844 118.42089844 C-60.9910809 123.40649796 -70.13836574 128.16365371 -79.31930542 132.88009644 C-87.61049577 137.14183667 -95.84460824 141.49246875 -104.01464844 145.98339844 C-106.58066665 147.38840616 -109.14709878 148.79265238 -111.71386719 150.19628906 C-113.13148507 150.97189675 -114.54825986 151.74904909 -115.96386719 152.52832031 C-117.6394934 153.44473422 -119.32654434 154.34017831 -121.01464844 155.23339844 C-121.871875 155.69359375 -122.72910156 156.15378906 -123.61230469 156.62792969 C-127.71763725 158.01921935 -130.91761201 156.52912268 -134.65551758 154.69360352 C-136.10269141 153.94881697 -137.54642375 153.19731886 -138.98730469 152.44042969 C-139.77022385 152.03574966 -140.55314301 151.63106964 -141.35978699 151.21412659 C-143.91425067 149.89262555 -146.46434942 148.56291594 -149.01464844 147.23339844 C-152.56138473 145.39597311 -156.11033759 143.56284624 -159.65917969 141.72949219 C-160.54141205 141.27298279 -161.42364441 140.81647339 -162.33261108 140.34613037 C-169.92056785 136.42398805 -177.5508736 132.59267025 -185.20214844 128.79589844 C-195.87059902 123.49370706 -206.44548339 118.03652976 -216.95214844 112.42089844 C-214.57806229 109.76291705 -212.1310105 108.31352229 -208.96386719 106.70605469 C-207.9596875 106.19139648 -206.95550781 105.67673828 -205.92089844 105.14648438 C-204.83808594 104.59766602 -203.75527344 104.04884766 -202.63964844 103.48339844 C-194.51572579 99.31698668 -186.44142586 95.08996274 -178.45214844 90.67089844 C-167.01430931 84.36739243 -155.39472695 78.42667134 -143.77554321 72.46713257 C-143.0822995 72.11156281 -142.38905579 71.75599304 -141.67480469 71.38964844 C-140.99195404 71.03947662 -140.30910339 70.68930481 -139.6055603 70.32852173 C-134.45341972 67.68413893 -129.3201707 65.00578031 -124.20214844 62.29589844 C-113.37461941 56.56757268 -102.48514262 50.95888761 -91.6010437 45.33909607 C-87.40387715 43.17172331 -83.2086763 41.00059112 -79.01464844 38.82714844 C-68.34819884 33.30097486 -57.67599642 27.78694762 -46.98339844 22.31152344 C-46.12253632 21.8705986 -45.26167419 21.42967377 -44.37472534 20.97538757 C-40.13863115 18.80601546 -35.90174646 16.63820989 -31.66357422 14.47290039 C-30.87530243 14.06931808 -30.08703064 13.66573578 -29.27487183 13.24992371 C-27.7248956 12.45707273 -26.17374611 11.66651078 -24.62136841 10.87837219 C-20.91943475 8.98941329 -17.26665444 7.05141554 -13.66601562 4.97509766 C-12.98928802 4.59143539 -12.31256042 4.20777313 -11.61532593 3.81248474 C-10.35500399 3.09315498 -9.10376335 2.35756112 -7.8644104 1.60267639 C-4.91614428 -0.0680395 -3.36664043 -0.66040945 0 0 Z " fill="#E4934A" transform="translate(315.9521484375,42.5791015625)"/>
<path d="M0 0 C0.72387405 0.3418634 1.44774811 0.68372681 2.19355774 1.03594971 C4.5026244 2.12816962 6.80790361 3.22814362 9.11328125 4.328125 C10.64365087 5.05256799 12.17424781 5.776531 13.70507812 6.5 C21.3221126 10.10678544 28.9145232 13.75454969 36.42578125 17.578125 C33.42112006 19.96565083 30.34965386 21.76128924 26.9375 23.51171875 C25.85082031 24.07181641 24.76414062 24.63191406 23.64453125 25.20898438 C22.47921875 25.80517578 21.31390625 26.40136719 20.11328125 27.015625 C18.890408 27.64476068 17.66775455 28.27432376 16.4453125 28.90429688 C14.5771032 29.86696981 12.7087534 30.82935871 10.83969116 31.79037476 C5.18921263 34.69576496 -0.44423034 37.63323867 -6.07421875 40.578125 C-21.38428952 48.57490899 -36.72004981 56.52231622 -52.06640625 64.44921875 C-63.29110541 70.24772556 -74.51387332 76.04833984 -85.68652344 81.94677734 C-91.72308691 85.13354581 -97.77159482 88.29697294 -103.82421875 91.453125 C-105.27018433 92.20758911 -105.27018433 92.20758911 -106.74536133 92.97729492 C-111.61892248 95.51929965 -116.49490642 98.05649511 -121.375 100.5859375 C-130.99199337 105.57668516 -140.56822612 110.62861017 -150.07421875 115.828125 C-150.98365234 116.32401123 -151.89308594 116.81989746 -152.83007812 117.33081055 C-156.93931751 119.57463209 -161.03703001 121.83437146 -165.109375 124.14453125 C-166.13998047 124.71929199 -166.13998047 124.71929199 -167.19140625 125.30566406 C-168.99234379 126.31010262 -170.78559267 127.32829337 -172.578125 128.34765625 C-176.12384464 129.80385141 -176.95332065 129.643774 -180.57421875 128.578125 C-183.41528251 127.32500051 -186.15869381 125.90239291 -188.91015625 124.46484375 C-189.70773346 124.05402054 -190.50531067 123.64319733 -191.32705688 123.21992493 C-193.87081191 121.90760324 -196.40993065 120.58656536 -198.94921875 119.265625 C-200.64946352 118.38813677 -202.34998168 117.51117803 -204.05078125 116.63476562 C-205.69165453 115.78693868 -207.33228744 114.93864633 -208.97265625 114.08984375 C-209.73017181 113.69802414 -210.48768738 113.30620453 -211.26815796 112.9025116 C-215.7661725 110.56148086 -220.18764508 108.12207744 -224.57421875 105.578125 C-224.57421875 104.918125 -224.57421875 104.258125 -224.57421875 103.578125 C-222.76782227 102.28808594 -222.76782227 102.28808594 -220.203125 100.8125 C-219.24946045 100.25957275 -218.2957959 99.70664551 -217.31323242 99.13696289 C-216.26498291 98.54004639 -215.2167334 97.94312988 -214.13671875 97.328125 C-213.05430908 96.70478271 -211.97189941 96.08144043 -210.85668945 95.43920898 C-200.22303115 89.3333518 -189.52784104 83.33658191 -178.81005859 77.37988281 C-175.49441154 75.5336873 -172.18431956 73.67782317 -168.875 71.8203125 C-154.8254267 63.95045013 -140.65338824 56.37406944 -126.33447266 49.00683594 C-123.17986506 47.37400703 -120.04419784 45.70790709 -116.91064453 44.03515625 C-91.61804011 30.56415767 -65.91176603 17.87607494 -39.57421875 6.578125 C-38.95621399 6.3115509 -38.33820923 6.04497681 -37.70147705 5.77032471 C-33.33658861 3.8879535 -28.95947567 2.03757151 -24.57421875 0.203125 C-22.8725354 -0.52185181 -22.8725354 -0.52185181 -21.13647461 -1.26147461 C-19.55878296 -1.90934937 -19.55878296 -1.90934937 -17.94921875 -2.5703125 C-17.02882812 -2.95364746 -16.1084375 -3.33698242 -15.16015625 -3.73193359 C-9.56084191 -5.22585942 -4.98619903 -2.39046151 0 0 Z " fill="#EFA25D" transform="translate(262.57421875,17.421875)"/>
<path d="M0 0 C11.95796423 5.50561569 23.69002054 11.37283548 35.35449219 17.47509766 C41.41144343 20.63779464 47.48208223 23.76116246 53.6015625 26.80078125 C54.22839432 27.11230637 54.85522614 27.42383148 55.50105286 27.74479675 C58.50987675 29.23826766 61.52158183 30.7253956 64.53686523 32.20581055 C66.17570679 33.01659058 66.17570679 33.01659058 67.84765625 33.84375 C68.79648682 34.30974609 69.74531738 34.77574219 70.72290039 35.25585938 C71.80434326 35.83142578 72.88578613 36.40699219 74 37 C74.85291122 37.3835817 75.70582245 37.76716339 76.58457947 38.16236877 C83.48943242 41.610611 83.48943242 41.610611 84.81626892 45.22128296 C85.03366506 48.04806782 84.91090405 50.70087704 84.68359375 53.52734375 C84.64012314 54.60483383 84.59665253 55.68232391 84.55186462 56.79246521 C84.45394548 59.20532785 84.33575964 61.6174252 84.2008667 64.02850342 C83.98746383 68.24786267 83.87271697 72.46060056 83.78955078 76.68408203 C83.75867033 78.2166051 83.72771421 79.74912665 83.69668579 81.28164673 C83.68100178 82.05652058 83.66531776 82.83139442 83.64915848 83.6297493 C83.56197381 87.64880057 83.45021182 91.66713128 83.33789062 95.68554688 C83.31526972 96.49669764 83.29264881 97.3078484 83.26934242 98.14357948 C83.22334888 99.79066778 83.17728942 101.43775424 83.13116455 103.08483887 C83.03966292 106.38654307 82.95199377 109.68834443 82.86432838 112.99015236 C82.3849863 131.0003134 81.82992572 149.00189346 81 167 C76.87684512 165.72447253 73.20379836 164.18067619 69.4140625 162.12109375 C68.33431152 161.53803467 67.25456055 160.95497559 66.14208984 160.35424805 C64.96971592 159.71535156 63.79735295 159.07643497 62.625 158.4375 C60.75856357 157.42714548 58.89117837 156.41856015 57.02371216 155.41011047 C55.71473514 154.70318322 54.40604454 153.99572538 53.09762573 153.2877655 C46.23224768 149.57589521 39.33361618 145.92750838 32.43502808 142.27786255 C22.94050174 137.25245729 13.45555302 132.21350398 4.0625 127 C3.33530762 126.59676514 2.60811523 126.19353027 1.85888672 125.77807617 C-2.86629956 123.13370044 -2.86629956 123.13370044 -4 122 C-4.53871122 109.30083397 -3.77932411 96.48498547 -3.37890625 83.7890625 C-3.31392411 81.6835465 -3.24906127 79.57802681 -3.18431091 77.47250366 C-3.04894502 73.09050183 -2.91171016 68.70856347 -2.77319336 64.32666016 C-2.59655996 58.73217999 -2.42533858 53.13754885 -2.25558567 47.54285622 C-2.12330945 43.20690285 -1.98782518 38.87105409 -1.85142326 34.53522873 C-1.78697711 32.47254087 -1.72358954 30.40981963 -1.66131783 28.34706497 C-1.57382602 25.46254421 -1.48190916 22.57819563 -1.38891602 19.69384766 C-1.36445908 18.85726624 -1.34000214 18.02068481 -1.31480408 17.15875244 C-1.12306923 11.40765021 -0.63505936 5.71864989 0 0 Z " fill="#E4934A" transform="translate(94,166)"/>
<path d="M0 0 C2.19831264 0.98255493 4.36868066 2.01285602 6.53822327 3.05737305 C7.33020615 3.43329086 8.12218903 3.80920868 8.93817139 4.19651794 C11.45711866 5.39361509 13.97229166 6.59841579 16.48744202 7.8034668 C18.19878702 8.61843153 19.91037299 9.43289045 21.62220764 10.24682617 C25.80926708 12.23902329 29.99295952 14.23813558 34.17494202 16.2409668 C30.89071418 18.98916015 27.66388293 21.20642165 23.87806702 23.2019043 C22.85028137 23.74830566 21.82249573 24.29470703 20.76356506 24.85766602 C19.66181946 25.43790527 18.56007385 26.01814453 17.42494202 26.6159668 C15.06072009 27.87466477 12.69724499 29.13464081 10.33509827 30.3972168 C9.73450089 30.71786102 9.1339035 31.03850525 8.5151062 31.36886597 C2.58744476 34.54068612 -3.27999049 37.81665433 -9.13755798 41.1159668 C-18.21593515 46.22643098 -27.3222436 51.28212842 -36.45005798 56.3034668 C-46.07764639 61.60169627 -55.67081363 66.95633498 -65.2283783 72.38012695 C-72.53005367 76.51995022 -79.85989155 80.60732294 -87.20005798 84.6784668 C-112.73119114 98.84549719 -138.2055862 113.1002016 -163.31333923 128.00952148 C-164.51907411 128.72381635 -165.73251611 129.42527964 -166.95372009 130.11279297 C-168.90261113 131.24144336 -168.90261113 131.24144336 -170.870224 132.80078125 C-173.2173433 134.44704836 -175.04589015 135.51074655 -177.82505798 136.2409668 C-182.1738317 135.33728517 -185.77349553 133.31826751 -189.63755798 131.1784668 C-190.71964539 130.61804688 -191.80173279 130.05762695 -192.91661072 129.48022461 C-195.14187722 128.32591145 -197.35946882 127.15668421 -199.56919861 125.97290039 C-203.58049574 123.83911651 -207.64241047 121.82023299 -211.71641541 119.80957031 C-215.43080224 117.97597162 -219.12754421 116.10831454 -222.82505798 114.2409668 C-220.31768483 111.39860262 -217.54885639 109.85694751 -214.21568298 108.08862305 C-213.08018005 107.4831665 -211.94467712 106.87770996 -210.77476501 106.25390625 C-209.54160343 105.60361924 -208.30836591 104.95347622 -207.07505798 104.3034668 C-205.80384805 103.62833217 -204.53285423 102.95279048 -203.2620697 102.27685547 C-194.57488352 97.66324354 -185.85334924 93.11569722 -177.12193298 88.58642578 C-170.72717189 85.26045977 -164.39074979 81.83942576 -158.07505798 78.3659668 C-148.74602146 73.23592438 -139.31304365 68.32580138 -129.84898376 63.45019531 C-122.83037041 59.82525745 -115.86784081 56.11698452 -108.95005798 52.3034668 C-99.86320352 47.29560034 -90.66860696 42.5145797 -81.44132996 37.77297974 C-72.63494484 33.24496731 -63.90687077 28.59585645 -55.23594666 23.81274414 C-46.23784498 18.8721221 -37.1164533 14.17554204 -27.98326111 9.4909668 C-26.82374939 8.89541992 -25.66423767 8.29987305 -24.46958923 7.6862793 C-22.79050476 6.82824707 -22.79050476 6.82824707 -21.07749939 5.95288086 C-17.05210145 3.83412314 -13.13193505 1.54970651 -9.23399353 -0.79467773 C-5.63401344 -2.23583729 -3.50330509 -1.45700844 0 0 Z " fill="#EFA25D" transform="translate(425.82505798339844,93.759033203125)"/>
<path d="M0 0 C2.36278933 1.54803439 2.8887519 2.54552419 3.55918884 5.28442383 C3.99646146 7.97820118 4.17391605 10.53472288 4.24047852 13.26171875 C4.26622452 14.28628174 4.29197052 15.31084473 4.3184967 16.36645508 C4.40309488 21.01728205 4.46840388 25.66797033 4.51489258 30.31933594 C4.54663424 32.77337324 4.59449199 35.22725493 4.65844727 37.68066406 C4.74950943 41.22519349 4.78846115 44.76697913 4.81640625 48.3125 C4.85455948 49.40844482 4.89271271 50.50438965 4.93202209 51.63354492 C4.91314103 59.00737911 4.91314103 59.00737911 2.43572998 61.70042419 C0.34786276 63.0487894 -1.71008299 64.03821324 -4 65 C-5.26828343 65.64292676 -6.53510116 66.28875466 -7.80029297 66.93774414 C-9.11184092 67.55867909 -10.4259132 68.17430423 -11.7421875 68.78515625 C-12.46019531 69.12341934 -13.17820312 69.46168243 -13.91796875 69.81019592 C-16.23446337 70.89976032 -18.55439203 71.98172707 -20.875 73.0625 C-22.48331916 73.81411175 -24.0915541 74.56590375 -25.69970703 75.31787109 C-28.12997468 76.45379586 -30.56058477 77.58895174 -32.99240112 78.72155762 C-37.36323381 80.75877667 -41.72227731 82.81733789 -46.06515503 84.91349792 C-48.99699087 86.32732873 -51.93701787 87.723996 -54.875 89.125 C-56.44870361 89.89662476 -56.44870361 89.89662476 -58.05419922 90.68383789 C-65.11806734 94.01736848 -65.11806734 94.01736848 -69.5703125 93.9296875 C-72 93 -72 93 -74 91 C-74.48657227 89.11157227 -74.48657227 89.11157227 -74.81640625 86.81640625 C-74.94080078 85.97013672 -75.06519531 85.12386719 -75.19335938 84.25195312 C-75.31517578 83.36443359 -75.43699219 82.47691406 -75.5625 81.5625 C-75.68818359 80.70978516 -75.81386719 79.85707031 -75.94335938 78.97851562 C-77.51481526 68.02768953 -78.22132548 57.1875088 -78.3125 46.125 C-78.34150391 44.92875 -78.37050781 43.7325 -78.40039062 42.5 C-78.40876953 41.34757812 -78.41714844 40.19515625 -78.42578125 39.0078125 C-78.44036377 37.97285645 -78.45494629 36.93790039 -78.4699707 35.87158203 C-77.87591282 32.24181119 -76.52743063 30.6246835 -74 28 C-71.80518723 26.61840471 -69.76273785 25.47910637 -67.4375 24.375 C-66.75550537 24.04363037 -66.07351074 23.71226074 -65.37084961 23.37084961 C-49.72392014 15.94148206 -33.43544682 9.78213916 -17.1875 3.8125 C-16.15052979 3.42586182 -15.11355957 3.03922363 -14.04516602 2.64086914 C-4.93837076 -0.6392713 -4.93837076 -0.6392713 0 0 Z " fill="#000000" transform="translate(454,299)"/>
<path d="M0 0 C0.17328763 3.33302172 0.33728039 6.66644698 0.5 10 C0.54769531 10.91523438 0.59539062 11.83046875 0.64453125 12.7734375 C1.04784396 21.18538838 1.04807787 29.58103028 1 38 C-4.13684993 40.43588475 -9.27398973 42.87115684 -14.41137695 45.3059082 C-16.15201292 46.13094304 -17.89257521 46.95613335 -19.63305664 47.78149414 C-24.63110452 50.15156873 -29.63086464 52.51796728 -34.63262939 54.88018799 C-36.93102027 55.96737125 -39.22708078 57.05935793 -41.52294922 58.15185547 C-42.88889946 58.79805862 -44.254942 59.44406672 -45.62109375 60.08984375 C-47.40471313 60.93663696 -47.40471313 60.93663696 -49.22436523 61.80053711 C-52 63 -52 63 -54 63 C-55.89668785 53.85227663 -56.24680038 45.07241385 -56.125 35.75 C-56.11493575 34.40755887 -56.10581607 33.06511031 -56.09765625 31.72265625 C-56.07433912 28.48157511 -56.04161552 25.24088898 -56 22 C-43.82326709 15.70841704 -31.27648246 10.6856198 -18.4375 5.9375 C-17.64258148 5.64251617 -16.84766296 5.34753235 -16.02865601 5.04360962 C-13.74879502 4.19977279 -11.46684331 3.36196364 -9.18359375 2.52734375 C-8.48852722 2.2715152 -7.79346069 2.01568665 -7.07733154 1.75210571 C-2.23509028 0 -2.23509028 0 0 0 Z " fill="#DA9659" transform="translate(445,314)"/>
<path d="M0 0 C2 3 2 3 2.125 5.875 C-0.78539062 13.95941839 -15.62375488 18.63405829 -23.125 22.5625 C-26.17693771 24.16317206 -29.22777102 25.76592043 -32.27734375 27.37109375 C-33.02782486 27.76607056 -33.77830597 28.16104736 -34.55152893 28.56799316 C-39.0302986 30.93394359 -43.46823522 33.3570255 -47.87890625 35.84765625 C-48.87583496 36.40831787 -49.87276367 36.96897949 -50.89990234 37.54663086 C-52.70292199 38.56752086 -54.49936604 39.60015127 -56.28759766 40.64672852 C-61.02830099 43.32231275 -64.39266939 44.75580194 -70 44 C-72 42.3125 -72 42.3125 -73 40 C-73 37.5 -73 37.5 -72 35 C-68.45855882 31.82589662 -64.69610218 29.62027055 -60.49609375 27.41796875 C-59.86832031 27.08649338 -59.24054688 26.75501801 -58.59375 26.41349792 C-56.54443806 25.33279726 -54.49127385 24.25969404 -52.4375 23.1875 C-49.55105139 21.67513883 -46.66590771 20.16030521 -43.78125 18.64453125 C-43.05062851 18.26123657 -42.32000702 17.87794189 -41.56724548 17.48303223 C-36.64271833 14.89097199 -31.7651453 12.22449211 -26.90625 9.51171875 C-25.01877323 8.46677408 -23.13059103 7.42311524 -21.24221802 6.37979126 C-20.04758524 5.71466986 -18.85647824 5.04317235 -17.66915894 4.36508179 C-6.0055385 -2.29017792 -6.0055385 -2.29017792 0 0 Z " fill="#000000" transform="translate(354,244)"/>
<path d="M0 0 C1.875 1.75 1.875 1.75 3 4 C2.76588183 6.91045545 2.53082892 8.48086191 0.41479492 10.55029297 C-5.83044986 14.42635445 -12.26041988 17.86102319 -18.818573 21.17907715 C-22.0259533 22.8024334 -25.2239242 24.4441025 -28.421875 26.0859375 C-29.38286354 26.57882263 -29.38286354 26.57882263 -30.36326599 27.08166504 C-37.34964641 30.67566013 -44.24296308 34.43585166 -51.12182617 38.23095703 C-63.44211063 45.02594834 -63.44211063 45.02594834 -66.6875 44.875 C-69.25138847 43.90488004 -70.45902684 43.27090781 -72 41 C-72.5625 38.625 -72.5625 38.625 -72 36 C-66.71164932 30.71164932 -60.12123886 27.76642295 -53.5 24.4375 C-51.06947492 23.2007874 -48.64201875 21.95811595 -46.21484375 20.71484375 C-45.30199867 20.24834915 -45.30199867 20.24834915 -44.37071228 19.77243042 C-38.54326807 16.78582575 -32.797715 13.65906266 -27.0625 10.5 C-24.46590005 9.07889885 -21.86838646 7.65948461 -19.27050781 6.24072266 C-17.83908692 5.4585204 -16.40861316 4.67458003 -14.97949219 3.88818359 C-13.30675624 2.97330855 -11.62266069 2.07928212 -9.9375 1.1875 C-9.08027344 0.72730469 -8.22304688 0.26710937 -7.33984375 -0.20703125 C-4.46555685 -1.1811218 -2.86408022 -0.92561645 0 0 Z " fill="#000000" transform="translate(348,211)"/>
<path d="M0 0 C0.33 0 0.66 0 1 0 C1 3.96 1 7.92 1 12 C0.67 12 0.34 12 0 12 C0 8.04 0 4.08 0 0 Z " fill="#FFFFFF" transform="translate(64,45)"/>
<path d="M0 0 C0.33 0 0.66 0 1 0 C1 3.63 1 7.26 1 11 C0.67 11 0.34 11 0 11 C0 7.37 0 3.74 0 0 Z " fill="#FFFFFF" transform="translate(48,58)"/>
<path d="M0 0 C0.33 0 0.66 0 1 0 C1 3.3 1 6.6 1 10 C0.67 10 0.34 10 0 10 C0 6.7 0 3.4 0 0 Z " fill="#FFFFFF" transform="translate(61,49)"/>
<path d="M0 0 C0.33 0 0.66 0 1 0 C1 3.3 1 6.6 1 10 C0.67 10 0.34 10 0 10 C0 6.7 0 3.4 0 0 Z " fill="#FFFFFF" transform="translate(0,29)"/>
<path d="M0 0 C0.33 0 0.66 0 1 0 C1 2.97 1 5.94 1 9 C0.67 9 0.34 9 0 9 C0 6.03 0 3.06 0 0 Z " fill="#FFFFFF" transform="translate(45,60)"/>
<path d="M0 0 C0.33 0 0.66 0 1 0 C1 2.64 1 5.28 1 8 C0.67 8 0.34 8 0 8 C0 5.36 0 2.72 0 0 Z " fill="#FFFFFF" transform="translate(51,57)"/>
<path d="M0 0 C0.33 0 0.66 0 1 0 C1 2.64 1 5.28 1 8 C0.67 8 0.34 8 0 8 C0 5.36 0 2.72 0 0 Z " fill="#FFFFFF" transform="translate(67,42)"/>
<path d="M0 0 C0.33 0 0.66 0 1 0 C1 2.31 1 4.62 1 7 C0.67 7 0.34 7 0 7 C0 4.69 0 2.38 0 0 Z " fill="#FFFFFF" transform="translate(54,54)"/>
<path d="M0 0 C0.33 0 0.66 0 1 0 C1 2.31 1 4.62 1 7 C0.67 7 0.34 7 0 7 C0 4.69 0 2.38 0 0 Z " fill="#FFFFFF" transform="translate(57,52)"/>
<path d="M0 0 C0.99 0.495 0.99 0.495 2 1 C1.67 1.99 1.34 2.98 1 4 C0.67 2.68 0.34 1.36 0 0 Z " fill="#FFFFFF" transform="translate(57,7)"/>
<path d="M0 0 C0.33 0 0.66 0 1 0 C1 1.98 1 3.96 1 6 C0.67 6 0.34 6 0 6 C0 4.02 0 2.04 0 0 Z " fill="#FFFFFF" transform="translate(54,5)"/>
<path d="M0 0 C0.33 0 0.66 0 1 0 C1 1.65 1 3.3 1 5 C0.67 5 0.34 5 0 5 C0 3.35 0 1.7 0 0 Z " fill="#FFFFFF" transform="translate(3,20)"/>
<path d="M0 0 C0.33 0 0.66 0 1 0 C1 1.65 1 3.3 1 5 C0.67 5 0.34 5 0 5 C0 3.35 0 1.7 0 0 Z " fill="#FFFFFF" transform="translate(48,2)"/>
<path d="M0 0 C0.66 0 1.32 0 2 0 C1.67 0.99 1.34 1.98 1 3 C0.67 2.01 0.34 1.02 0 0 Z " fill="#FFFFFF" transform="translate(44,1)"/>
<path d="M0 0 C1 4 1 4 1 4 Z " fill="#FFFFFF" transform="translate(32,42)"/>
<path d="M0 0 C1 4 1 4 1 4 Z " fill="#FFFFFF" transform="translate(51,3)"/>
<path d="M0 0 C0.66 0 1.32 0 2 0 C2 0.66 2 1.32 2 2 C1.34 2 0.68 2 0 2 C0 1.34 0 0.68 0 0 Z " fill="#FFFFFF" transform="translate(41,0)"/>
<path d="" fill="#FFFFFF" transform="translate(0,0)"/>
<path d="" fill="#FFFFFF" transform="translate(0,0)"/>
<path d="" fill="#FFFFFF" transform="translate(0,0)"/>
<path d="" fill="#FFFFFF" transform="translate(0,0)"/>
</svg>
